<?xml version="1.0" encoding="utf-8"?>
<svg xmlns="http://www.w3.org/2000/svg" viewBox="0 0 50 50" fill="#000000"><path d="M 25 3 C 12.85977 3 3 12.85977 3 25 C 3 37.14023 12.85977 47 25 47 C 37.14023 47 47 37.14023 47 25 C 47 12.85977 37.14023 3 25 3 z M 25 5 C 36.05977 5 45 13.94023 45 25 C 45 36.05977 36.05977 45 25 45 C 13.94023 45 5 36.05977 5 25 C 5 13.94023 13.94023 5 25 5 z M 24 13 L 24 24 L 13 24 L 13 26 L 24 26 L 24 37 L 26 37 L 26 26 L 37 26 L 37 24 L 26 24 L 26 13 L 24 13 z" fill="#000000"/></svg>
