<svg width="246" height="246" viewBox="0 0 246 246" fill="none" xmlns="http://www.w3.org/2000/svg">
<rect width="246" height="246" rx="50" fill="#333333"/>
<path d="M57.4141 144.266V179H32.7344V76.625H73.5859C81.4141 76.625 88.3281 78.0781 94.3281 80.9844C100.375 83.8438 105.039 87.9453 108.32 93.2891C111.648 98.5859 113.312 104.609 113.312 111.359C113.312 121.344 109.727 129.336 102.555 135.336C95.4297 141.289 85.6328 144.266 73.1641 144.266H57.4141ZM57.4141 125.211H73.5859C78.3672 125.211 82 124.016 84.4844 121.625C87.0156 119.234 88.2812 115.859 88.2812 111.5C88.2812 106.719 86.9922 102.898 84.4141 100.039C81.8359 97.1797 78.3203 95.7266 73.8672 95.6797H57.4141V125.211ZM211.623 179H187.084L150.803 115.297V179H126.123V76.625H150.803L187.014 140.328V76.625H211.623V179Z" fill="white"/>
</svg>
